Coordinates
version=1
nRows=7
nColumns=46
inDegrees=yes

Units are S.I. units (second, meters, Newtons, ...)
Angles are in degrees.

endheader
time	pelvis_tilt	pelvis_list	pelvis_rotation	pelvis_tx	pelvis_ty	pelvis_tz	bb_angle	bb_tx	bb_ty	bb_tz	hip_flexion_r	hip_adduction_r	hip_rotation_r	knee_angle_r	knee_angle_r_beta	ankle_angle_r	subtalar_angle_r	mtp_angle_r	crank_angle_r	hip_flexion_l	hip_adduction_l	hip_rotation_l	knee_angle_l	knee_angle_l_beta	ankle_angle_l	subtalar_angle_l	mtp_angle_l	crank_angle_l	lumbar_extension	lumbar_bending	lumbar_rotation	arm_flex_r	arm_add_r	arm_rot_r	elbow_flex_r	pro_sup_r	wrist_flex_r	wrist_dev_r	arm_flex_l	arm_add_l	arm_rot_l	elbow_flex_l	pro_sup_l	wrist_flex_l	wrist_dev_l
      0.00500000	     -8.22908071	     -3.03038060	     -0.40720285	      0.07757869	      1.10617349	     -0.26461265	      0.00000000	      0.50000000	      0.00000000	      0.25000000	     74.04746544	     -4.72502772	     -2.45449097	     89.21305529	      1.55706155	     11.82200053	     -4.97462305	      0.00000000	      0.00000000	     39.30281283	    -10.16955776	     -0.61945922	     68.60754995	      1.19742764	     14.00308786	     -2.94332657	      0.00000000	      0.00000000	    -54.44647355	      0.04049500	      4.64868966	     88.73528739	    -13.18281143	     40.85604501	     23.51693102	     32.73934432	      0.00000000	      0.00000000	     88.20446144	     -8.83765707	     39.73626588	     28.90483150	     35.09614399	      0.00000000	      0.00000000
      0.01000000	     -8.23385237	     -3.05320295	     -0.40746811	      0.07759889	      1.10617839	     -0.26465296	      0.00000000	      0.50000000	      0.00000000	      0.25000000	     74.04677405	     -4.71596373	     -2.47936523	     89.21767633	      1.55714220	     11.82434659	     -5.00848066	      0.00000000	      0.00000000	     39.30427251	    -10.18319343	     -0.59823329	     68.59590399	      1.19722438	     14.01668125	     -2.94831809	      0.00000000	      0.00000000	    -54.43434368	      0.06189074	      4.60188440	     88.77704027	    -13.26667648	     41.81900369	     23.35710835	     33.09011315	      0.00000000	      0.00000000	     88.20867647	     -9.18047742	     40.50740214	     29.06956996	     35.48503545	      0.00000000	      0.00000000
      0.01500000	     -8.23446683	     -3.02980918	     -0.40487918	      0.07760290	      1.10615094	     -0.26466796	      0.00000000	      0.50000000	      0.00000000	      0.25000000	     74.06482539	     -4.70445297	     -2.42386884	     89.24044023	      1.55753951	     11.83367697	     -4.99064650	      0.00000000	      0.00000000	     39.29847087	    -10.16863500	     -0.63030919	     68.58917300	      1.19710690	     14.02399508	     -2.90396707	      0.00000000	      0.00000000	    -54.43616559	      0.05173230	      4.60165077	     88.78573089	    -13.30560162	     41.94440773	     23.32785615	     33.49361357	      0.00000000	      0.00000000	     88.20905548	     -9.20860715	     40.53532285	     29.09919866	     35.84472934	      0.00000000	      0.00000000
      0.02000000	     -8.29996136	     -3.04649552	     -0.41396016	      0.07763942	      1.10616718	     -0.26466124	      0.00000000	      0.50000000	      0.00000000	      0.25000000	     74.10334569	     -4.65658302	     -2.40318402	     89.21897170	      1.55716481	     11.86683056	     -4.99198589	      0.00000000	      0.00000000	     39.34929553	    -10.14030103	     -0.55689335	     68.56023274	      1.19660180	     14.00844915	     -2.96177470	      0.00000000	      0.00000000	    -54.37666211	      0.05719130	      4.60648354	     88.79084252	    -13.18698071	     41.68797953	     23.16860879	     33.63053018	      0.00000000	      0.00000000	     88.16285470	     -9.15580897	     40.17996749	     29.06579555	     35.97665161	      0.00000000	      0.00000000
      0.02500000	     -8.01995972	     -3.00314946	     -0.47710367	      0.07765969	      1.10679536	     -0.26459339	      0.00000000	      0.50000000	      0.00000000	      0.25000000	     73.79608528	     -4.60738895	     -2.35283787	     89.22787341	      1.55732018	     11.96193451	     -5.08878573	      0.00000000	      0.00000000	     38.95967706	    -10.16739514	     -0.66204577	     68.47449331	      1.19510536	     14.18715347	     -2.65346122	      0.00000000	      0.00000000	    -54.76832490	     -0.05759126	      4.63831985	     88.71498137	    -13.23200361	     40.06568855	     23.81300082	     34.32643948	      0.00000000	      0.00000000	     87.97456164	     -9.17190022	     38.72536302	     30.10446294	     36.60121540	      0.00000000	      0.00000000
      0.03000000	     -8.31609443	     -3.07711509	     -0.36353006	      0.07751714	      1.10620738	     -0.26477909	      0.00000000	      0.50000000	      0.00000000	      0.25000000	     74.13692969	     -4.68706124	     -2.43104637	     89.24370832	      1.55759655	     11.85199932	     -5.13049177	      0.00000000	      0.00000000	     39.39831322	    -10.12412987	     -0.47483156	     68.56811260	      1.19673933	     13.98503709	     -2.99655307	      0.00000000	      0.00000000	    -54.35874241	      0.12490864	      4.56744865	     88.81761070	    -13.58169209	     43.29771169	     23.43653203	     34.18255697	      0.00000000	      0.00000000	     88.22975779	     -9.62486559	     41.56726432	     29.27417787	     36.62454592	      0.00000000	      0.00000000
      0.03500000	     -8.13483524	     -3.16224636	     -0.33314553	      0.07756481	      1.10659799	     -0.26498697	      0.00000000	      0.50000000	      0.00000000	      0.25000000	     73.88517502	     -4.68759582	     -2.52743272	     89.21348857	      1.55706911	     11.94156763	     -5.12250322	      0.00000000	      0.00000000	     39.19078502	    -10.18679742	     -0.42917088	     68.53968510	      1.19624317	     14.06127478	     -2.85171219	      0.00000000	      0.00000000	    -54.64343647	      0.22475148	      4.63254448	     88.76730057	    -13.65839665	     42.15164663	     24.09099074	     34.63018817	      0.00000000	      0.00000000	     88.11905990	     -9.58269459	     40.44675162	     29.84108976	     36.95878476	      0.00000000	      0.00000000
